<?xml version="1.0" encoding="UTF-8"?>
<!DOCTYPE svg  PUBLIC '-//W3C//DTD SVG 1.1//EN'  'http://www.w3.org/Graphics/SVG/1.1/DTD/svg11.dtd'>
<svg enable-background="new 0 0 1110 1132" version="1.1" viewBox="0 0 1110 1132" xml:space="preserve" xmlns="http://www.w3.org/2000/svg">
		<path d="m314.2 58.24c1.61-1.56 4.87-1.71 5.72 0.75l-0.81 0.36c-6.76 1.92-9.98 8.42-13.35 13.95-1.34 1.56-2.78 3.04-4.05 4.66 2.42-7.44 6.35-14.72 12.49-19.72z" enable-background="new    " fill="#D38002" opacity=".89" stroke="#D38002" stroke-width=".0938"/>
		<path d="m305.76 73.3c3.37-5.53 6.59-12.03 13.35-13.95 3.92 5.98 3.88 13.48 5.73 20.21 2.01 9.43 5.21 18.56 8.81 27.5-1.21 2.78-2.25 5.91-4.87 7.71-5.36 3.94-12.48 3.78-18.8 3.22-5.9-0.42-11.7-4.96-11.87-11.19-0.56-11.64 3.31-22.88 7.65-33.5z" fill="#FD9F02" stroke="#FD9F02" stroke-width=".0938"/>
		<path d="m352.59 67.54c5.22-1.89 11.14-2.43 16.58-1.22-3.61 0.81-7.27 1.7-10.34 3.86 1.34 5.84 7.88 7.79 13.15 8.08 2.79 0.09 6.99 0.08 7.66-3.4-1.02-3.22-4.02-5.25-6.34-7.51 5.59 1.83 11.55 5.31 13.22 11.36 0.76 2.93 1.44 6.63-0.85 9.07-2.93 3.85-7.61 5.58-11.83 7.6-6.49-1.33-12.97-2.65-19.17-5.04-2.26-1.69-3.61-4.5-5.34-6.74-3.77-4.95-2.96-13.46 3.26-16.06z" fill="#B31F03" stroke="#B31F03" stroke-width=".0938"/>
		<path d="m358.83 70.18c3.07-2.16 6.73-3.05 10.34-3.86 1.43-0.02 2.9 0.25 4.13 1.03 2.32 2.26 5.32 4.29 6.34 7.51-0.67 3.48-4.87 3.49-7.66 3.4-5.27-0.29-11.81-2.24-13.15-8.08z" fill="#DD5905" stroke="#DD5905" stroke-width=".0938"/>
		<path d="m301.71 77.96c1.27-1.62 2.71-3.1 4.05-4.66-4.34 10.62-8.21 21.86-7.65 33.5 0.17 6.23 5.97 10.77 11.87 11.19 6.32 0.56 13.44 0.72 18.8-3.22 2.62-1.8 3.66-4.93 4.87-7.71 1.23 2.6 2.69 5.09 4.35 7.45-5.86 3.44-12.74 4.09-19.03 6.42-6.94 2.23-13.48 6.29-21.01 6-0.05-6.05-2.13-11.85-2.13-17.9-0.45-10.63 1.86-21.27 5.88-31.07z" fill="#F45D04" stroke="#F45D04" stroke-width=".0938"/>
		<path d="m420.66 105.64c2.23-3.33 6.78-3.44 10.38-3.25 5.74 1.54 11.56 4.79 14.45 10.21-2.84-1.46-5.63-3.1-8.71-3.97-1.97-0.53-3.89 1.37-3.56 3.36 0.36 5.24 3.99 9.74 8.16 12.67 1.79 1.45 4.12 1.24 6.28 1.23 0.4-2.98 0.76-5.97 0.86-8.97 3.03 4.99 3.95 11.28 2.19 16.88-0.71 2.3-2.55 4.32-4.88 5.01-6.56 2.03-13.48-2.09-19.89 1.03 1.88-1.1 3.9-1.94 5.92-2.77-6.69-3.62-10.94-10.2-13.84-17.01-0.13-4.85-0.13-10.2 2.64-14.42z" fill="#B31D03" stroke="#B31D03" stroke-width=".0938"/>
		<path d="m433.22 111.99c-0.33-1.99 1.59-3.89 3.56-3.36 3.08 0.87 5.87 2.51 8.71 3.97 1.39 1.12 2.27 2.73 3.03 4.32-0.1 3-0.46 5.99-0.86 8.97-2.16 0.01-4.49 0.22-6.28-1.23-4.17-2.93-7.8-7.43-8.16-12.67z" fill="#E15804" stroke="#E15804" stroke-width=".0938"/>
		<path d="m348 121.87c6.17-0.66 12.56-1.31 18.58 0.66 10.78 3.41 21.22 8 30.72 14.15 6.23 4.76 12.07 10.37 15.57 17.48 6.21 11.9 6.75 25.7 7.03 38.84 0.43 16.73-1.4 33.38-3.2 49.98-0.4 5.77-1.56 11.43-2.68 17.09-3.03 18.46-6.83 37.09-14.99 54.06-1.52 2.95-3.28 5.91-5.84 8.09-1.72 1.35-4.09 0.35-5.64-0.79-4.19-3.08-7.54-7.12-11.28-10.71-11.58-11.42-22.66-23.37-34.98-34-6.19-6.57-13.74-11.59-20.48-17.53-3.94-3.48-8.53-6.1-12.63-9.37-8-6.24-16.75-11.41-25.51-16.5-18.79-10.87-39.46-18.53-60.91-22.03-7.36-1.75-14.96-1-22.41-1.77-2.22-0.03-3.62-1.64-4.48-3.5 1.53-2.16 3.26-4.18 5.38-5.78 7.25-5.73 14.39-11.59 21.66-17.3 15.09-10.79 30.46-21.19 46.47-30.57 2.04-1.28 4.31-2.14 6.72-2.36-1.28 2.44-2.38 4.97-3.3 7.57-4.34 10.95 4.7 23.71 16.15 24.4 10.42 1.25 20.53-7.57 21.12-17.96 1.2-10.69-8.34-21.51-19.39-20.17-1.26-0.05-2.51-0.04-3.76 0.02 10.04-6.76 21.59-10.74 32.81-15.06 9.53-3.1 19.21-6.2 29.27-6.94m27.97 103.1c-1.33 9.52 6.05 18.81 15.34 20.5 3.36 0.5 7.46 1.08 10.01-1.73l0.78 0.14c3.16-1.97 6.46-4.1 8.38-7.4 2.54-4.22 2.67-9.4 2.01-14.14-0.52-2.3-1.2-4.99-3.36-6.28-0.53-1.17-0.75-2.58-1.92-3.31-3.78-2.86-8.44-4.88-13.23-4.88-8.95 0.59-17.35 7.94-18.01 17.1z" fill="#FDE201" stroke="#FDE201" stroke-width=".0938"/>
		<path d="m275.1 150.01c2.97-2.93 6.74-5.17 10.82-6.14 1.25-0.06 2.5-0.07 3.76-0.02 4.98 2.02 10.39 4.42 12.99 9.45 2.67 5.43 3.28 12.61-0.74 17.57-1.1 1.95-3.26 2.59-5.3 3.04 3.53-3.01 7.09-6.88 6.6-11.9 0.7-8.3-8.16-15.09-16.07-12.91-7.3 1.45-12.14 10.16-9.4 17.11 1.08 3.35 3.73 5.84 6.47 7.9-1.96-0.29-4.33 0.04-5.73-1.7-4-3.95-4.71-9.81-6.7-14.83 0.92-2.6 2.02-5.13 3.3-7.57z" fill="#FBFB6F" stroke="#FBFB6F" stroke-width=".0938"/>
		<path d="m289.68 143.85c11.05-1.34 20.59 9.48 19.39 20.17-0.59 10.39-10.7 19.21-21.12 17.96-11.45-0.69-20.49-13.45-16.15-24.4 1.99 5.02 2.7 10.88 6.7 14.83 1.4 1.74 3.77 1.41 5.73 1.7 4.07 1.12 8.39 1.18 12.4-0.2 2.04-0.45 4.2-1.09 5.3-3.04 4.02-4.96 3.41-12.14 0.74-17.57-2.6-5.03-8.01-7.43-12.99-9.45z" fill="#FCFC55" stroke="#FCFC55" stroke-width=".0938"/>
	<g fill="#020204" stroke="#020204" stroke-width=".0938">
		<path d="m277.76 166.21c-2.74-6.95 2.1-15.66 9.4-17.11 7.91-2.18 16.77 4.61 16.07 12.91 0.49 5.02-3.07 8.89-6.6 11.9-4.01 1.38-8.33 1.32-12.4 0.2-2.74-2.06-5.39-4.55-6.47-7.9m16.15-8.04c0.05 1.55 0.07 3.09 0.09 4.64 1.02 0.4 2.01 0.85 2.99 1.35 0.96-0.54 1.95-1.04 2.96-1.49 0.02-1.5 0.04-3 0.12-4.49-1.9-1.49-4.24-1.43-6.16-0.01z"/>
		<path d="m390.32 215.25c4.85-1.13 10.57-0.58 13.96 3.48 6.1 6.12 3.15 17.77-4.95 20.55-7.73 3.34-17.1-3.03-17.37-11.29-0.36-5.53 3.5-10.52 8.36-12.74m8.56 8.89c0.06 1.49 0.11 2.99 0.14 4.49 1.04 0.45 2.08 0.93 3.11 1.43 1.19-1.21 3.46-1.99 2.92-4.07-0.22-3.06-4.12-3.76-6.17-1.85z"/>
	</g>
		<path d="m418.18 153.68c5.22 1.42 10.56 2.35 15.94 2.93 12.54 2.21 25.35 1.36 37.93-0.01 3.61-0.25 7.29-0.62 10.88 0.07 1.93 0.98 1.86 3.42 1.32 5.21-4.13 8.51-11.57 14.78-19.18 20.12-11.43 7.87-24.95 13.86-39.12 12.89-0.81-13.97-2.3-28.2-7.77-41.21m7.51 9.91c-1.85 8.08-0.1 17.08 5.27 23.49 2.79 3.16 7.38 4.83 11.47 3.39 11.57-3.39 22.3-9.67 31.06-17.95 3.97-3.79 8.31-8.74 6.64-14.69-5.49-0.78-10.69 1.63-16.11 1.83-6.02 0.24-12.06 0.34-18.07 0.11-4.72-0.15-9.22-1.95-13.93-2.04-3.24 0-5.66 2.9-6.33 5.86z" fill="#F25F05" stroke="#F25F05" stroke-width=".0938"/>
		<path d="m293.91 158.17c1.92-1.42 4.26-1.48 6.16 0.01-0.08 1.49-0.1 2.99-0.12 4.49-1.01 0.45-2 0.95-2.96 1.49-0.98-0.5-1.97-0.95-2.99-1.35-0.02-1.55-0.04-3.09-0.09-4.64z" fill="#F6FDA8" stroke="#F6FDA8" stroke-width=".0938"/>
		<path d="m425.69 163.59c0.67-2.96 3.09-5.86 6.33-5.86 4.71 0.09 9.21 1.89 13.93 2.04 6.01 0.23 12.05 0.13 18.07-0.11 5.42-0.2 10.62-2.61 16.11-1.83 1.67 5.95-2.67 10.9-6.64 14.69-8.76 8.28-19.49 14.56-31.06 17.95-4.09 1.44-8.68-0.23-11.47-3.39-5.37-6.41-7.12-15.41-5.27-23.49z" fill="#FE9F01" stroke="#FE9F01" stroke-width=".0938"/>
		<path d="m375.97 224.97c0.66-9.16 9.06-16.51 18.01-17.1 4.79 0 9.45 2.02 13.23 4.88 1.17 0.73 1.39 2.14 1.92 3.31-4.77-2.31-9.36-6.67-15.08-5.18-6.05 0.29-9.8 5.79-12.93 10.27-1.06 4.29-1.12 8.92-0.33 13.27 2.63 4.6 7.58 8.45 13.08 8.48 2.5 0.14 4.99 0.38 7.45 0.84-2.55 2.81-6.65 2.23-10.01 1.73-9.29-1.69-16.67-10.98-15.34-20.5z" fill="#FDFD45" stroke="#FDFD45" stroke-width=".0938"/>
		<path d="m394.05 210.88c5.72-1.49 10.31 2.87 15.08 5.18 2.16 1.29 2.84 3.98 3.36 6.28 0.66 4.74 0.53 9.92-2.01 14.14-1.92 3.3-5.22 5.43-8.38 7.4l-0.78-0.14c-2.46-0.46-4.95-0.7-7.45-0.84-5.5-0.03-10.45-3.88-13.08-8.48-0.79-4.35-0.73-8.98 0.33-13.27 3.13-4.48 6.88-9.98 12.93-10.27m-3.73 4.37c-4.86 2.22-8.72 7.21-8.36 12.74 0.27 8.26 9.64 14.63 17.37 11.29 8.1-2.78 11.05-14.43 4.95-20.55-3.39-4.06-9.11-4.61-13.96-3.48z" fill="#FAFB69" stroke="#FAFB69" stroke-width=".0938"/>
		<path d="m185.45 216.6c8.78-1.91 17.92-2.67 26.8-0.94-10.43 0.26-22.89-0.59-30.73 7.65 3.73-1.59 7.76-2.23 11.75-1.34-5.24 2.07-10.61 3.94-15.47 6.85-9.4 5.67-16.79 14.12-22.75 23.22-6.8 9.86-9.2 22.39-7.32 34.14 1.36 8.67 4.42 17.02 8.23 24.89 8.96 17.14 22.25 31.61 36.88 44.08 14.59 12.13 30.98 22.11 48.45 29.51 15.16 6.85 31.5 10.85 47.97 12.87 16.07 1.24 33.14 0.36 47.64-7.34 11.38-4.34 18.65-14.58 25-24.42-2.31 6.65-4.38 14.04-10.07 18.64 1.31 1.02 2.41 2.67 4.2 2.83 2.19-0.37 3.97-1.86 5.83-3-0.56 1.76-1.73 3.54-1.49 5.44 0.8 0.91 1.67 1.76 2.53 2.63 1.05-2.8 1.96-5.66 2.84-8.52 1.72-0.3 3.49-0.5 5.14-1.13 2.95-2.52 2.94-7.86 7.32-8.81l-0.21 0.99-0.19 0.91c-4.26 6.98-8.36 14.16-14.14 20.04-0.6 0.57-1.22 1.13-1.86 1.66-16.15 14.07-38.51 19.3-59.52 16.9-25.69-1.61-50.91-8.93-73.77-20.67-24.64-12.31-47.21-29.03-65.34-49.83-13.06-15.57-24.3-33.57-27.79-53.89-2.2-11.13-0.78-22.96 4.26-33.14 4.77-9.7 11.35-18.53 19.36-25.81 5.27-4.73 9.48-10.53 14.98-15-1.36 2-2.57 4.1-3.79 6.19 5.15-1.7 9.98-4.3 15.26-5.6z" fill="#FC6602" stroke="#FC6602" stroke-width=".0938"/>
		<path d="m181.52 223.31c7.84-8.24 20.3-7.39 30.73-7.65 7.43 0.63 14.69 2.46 21.7 4.96-2.27 0.63-4.42 1.62-6.3 3.06-8.85-1.77-17.91-3.54-26.95-2.12-2.47 0.16-4.95 0.32-7.43 0.41-3.99-0.89-8.02-0.25-11.75 1.34z" fill="#F85301" stroke="#F85301" stroke-width=".0938"/>
		<path d="m227.65 223.68c1.88-1.44 4.03-2.43 6.3-3.06 15.2 5.35 29.66 12.64 43.32 21.16 12.1 7.36 23.41 15.91 35.17 23.78 14.77 10.07 29.63 20.12 43.18 31.82 6.83 6.13 13.59 12.5 18.63 20.24-0.34 4.09 0.88 8.05 1.53 12.05-4.87 0.38-6.92-4.88-9.56-8.01-3.6-5.61-6.89-11.49-11.53-16.34-16.37-17.78-37.33-30.28-56.95-44.06-21.81-15.08-44.19-30.52-70.09-37.58z" fill="#F72C02" stroke="#F72C02" stroke-width=".0938"/>
		<path d="m398.88 224.14c2.05-1.91 5.95-1.21 6.17 1.85 0.54 2.08-1.73 2.86-2.92 4.07-1.03-0.5-2.07-0.98-3.11-1.43-0.03-1.5-0.08-3-0.14-4.49z" fill="#F7FDB5" stroke="#F7FDB5" stroke-width=".0938"/>
		<path d="m185.59 245.99c6.54-0.72 13.34-1.33 19.7 0.81 5.69 1.88 11.46 5.71 13.12 11.8 2.92 9.7-0.65 20.15-5.91 28.38-1.57-9.34-3.81-19.03-10.24-26.33-3.19-4.93-7.69-9.21-13.52-10.69-1.09-1.29-2.11-2.64-3.15-3.97z" fill="#FB4801" stroke="#FB4801" stroke-width=".0938"/>
	<path d="m366.22 321.66c-3.6-5.6099-6.8899-11.49-11.53-16.34-16.37-17.78-37.33-30.28-56.95-44.06-21.81-15.08-44.19-30.52-70.09-37.58-8.85-1.77-17.91-3.5399-26.95-2.1199-2.47 0.1599-4.95 0.3199-7.43 0.4099-5.24 2.0701-10.61 3.9399-15.47 6.8501-9.4 5.6699-16.79 14.12-22.75 23.22-6.8 9.8599-9.2 22.39-7.32 34.14 1.36 8.67 4.42 17.02 8.23 24.89 8.96 17.14 22.25 31.61 36.88 44.08 14.59 12.13 30.98 22.11 48.45 29.51 15.16 6.85 31.5 10.85 47.97 12.87 16.07 1.24 33.14 0.36 47.64-7.34 11.38-4.34 18.65-14.58 25-24.42 2.5699-5.96 5.23-11.97 6.27-18.42 2.25-8.5699 0.06-17.32-1.95-25.69zm-77.99 7.5801c6.44-3.04 13.68-3.8201 20.72-4.14 8.3901-0.1901 17.49 0.23 24.51 5.41 6.3601 4.05 9.6801 12.8 6.8901 19.88-4.25-3.7-8.1301-8.01-13.36-10.35-6.95-3.1801-14.36-5.47-21.98-6.22-6.36-0.8101-12.78-1.0701-19.1-2.1901 0.7101-0.8599 1.1701-2.0099 2.3201-2.3899zm-102.64-83.25c6.54-0.72 13.34-1.3301 19.7 0.8101 5.69 1.8799 11.46 5.71 13.12 11.8 2.92 9.7001-0.65 20.15-5.91 28.38-1.57-9.34-3.81-19.03-10.24-26.33-3.19-4.9299-7.69-9.21-13.52-10.69-1.0901-1.2901-2.1101-2.6399-3.1501-3.97z" fill="#FE9A08" stroke="#FE9A08" stroke-width=".0938"/>
		<path d="m419.96 253.72c0.3 0.62 0.91 1.86 1.21 2.48-0.14 4.58-0.16 9.18-0.06 13.77-0.15 1.75-0.38 3.49-0.61 5.24-1.23-7.1-0.87-14.34-0.54-21.49z" fill="#E6B944" stroke="#E6B944" stroke-width=".0938"/>
		<path d="m408.28 308.92c2.03 0.7 4.56 1.06 5.63 3.21 2.23 3.8 1.91 8.39 2.25 12.63-1.48 9.69-3.25 19.52-7.73 28.34-0.07-0.62-0.22-1.86-0.29-2.48-1.14 0.68-2.28 1.37-3.41 2.05-1.31-11.08 3.09-22.25 0.23-33.23 0.82-3.6 2.01-7.09 3.32-10.52z" fill="#B91603" stroke="#B91603" stroke-width=".0938"/>
		<path d="m374.25 317.62c6.22 8.1 9.95 18.16 10.18 28.4 0.58 9.7-2.48 19.04-6.23 27.83-4.38 0.95-4.37 6.29-7.32 8.81-1.65 0.63-3.42 0.83-5.14 1.13-0.88 2.86-1.79 5.72-2.84 8.52-0.86-0.87-1.73-1.72-2.53-2.63-0.24-1.9 0.93-3.68 1.49-5.44-1.86 1.14-3.64 2.63-5.83 3-1.79-0.16-2.89-1.81-4.2-2.83 5.69-4.6 7.76-11.99 10.07-18.64 2.57-5.96 5.23-11.97 6.27-18.42 2.25-8.57 0.06-17.32-1.95-25.69 2.64 3.13 4.69 8.39 9.56 8.01-0.65-4-1.87-7.96-1.53-12.05z" fill="#FD4C01" stroke="#FD4C01" stroke-width=".0938"/>
		<path d="m391.33 352.34c5.33-10.63 9.22-21.89 13.63-32.9 2.86 10.98-1.54 22.15-0.23 33.23 1.13-0.68 2.27-1.37 3.41-2.05 0.07 0.62 0.22 1.86 0.29 2.48-2.15 4.08-4.64 8.96-9.5 10.18-3.53-0.12-6.47-2.54-9.6-3.92 0.08-2.48 0.83-4.86 2-7.02z" fill="#AB0E05" stroke="#AB0E05" stroke-width=".0938"/>
		<path d="m288.23 329.24c6.44-3.04 13.68-3.82 20.72-4.14 8.39-0.19 17.49 0.23 24.51 5.41 6.36 4.05 9.68 12.8 6.89 19.88-4.25-3.7-8.13-8.01-13.36-10.35-6.95-3.18-14.36-5.47-21.98-6.22-6.36-0.81-12.78-1.07-19.1-2.19 0.71-0.86 1.17-2.01 2.32-2.39z" fill="#FB4202" stroke="#FB4202" stroke-width=".0938"/>
		<path d="m416.16 324.76c1.34 3.97 2.39 8.05 2.8 12.23 2.15 16.95 6.32 33.52 9.73 50.23 4.83 19.69 10.07 39.31 16.57 58.52 3.89 9.33 6.38 19.18 10.5 28.43 4.55 10.49 8.15 21.39 13.5 31.52 3.92 7.53 6.81 15.57 11.15 22.9 9.18 17.16 18.64 34.24 29.61 50.34 3.1 5.13 6.41 10.13 10.24 14.74 5.75 6.95 9.96 15.29 17.3 20.8 13.69 12.08 30.12 20.54 47.1 27 9.42 4.39 19.39 7.35 29.2 10.71 36.39 11.7 73.58 20.64 110.46 30.62 15.78 4.69 31.86 8.35 47.56 13.33 30 8.82 60.13 18.27 87.68 33.32 8.17 4.75 16.87 8.73 24.21 14.78 10.2 7.9 18.2 18.34 24.43 29.57 9.56 16.42 15.49 34.63 20.04 52.99 4.68 18.43 6.84 37.35 8.67 56.23 1.53 12.27 1.19 24.65 1.38 36.98-0.09 14.59 0.09 29.23-1.66 43.75-1.15 8.2-1.7 16.66-4.97 24.37-5.45-0.58-9.95-4.86-15.64-4.06-16.69 1.16-34.94 0.89-49.36-8.72-6.42-4.19-11.9-10.03-14.71-17.24-1.9-4.49-3.61-9.34-7.45-12.59-6.97-6.16-15.07-11.08-23.87-14.14-29.52-10.49-60.88-13.97-91.89-16.94-17.57-1.2-35.13-2.7-52.75-2.55-33.69-1.78-67.53-0.9-101.06 2.94-15 1.23-29.88 4.17-44.97 4.11-11.58-0.65-22.61-4.95-32.96-9.93-6.01-2.74-11.1-7.02-16.82-10.26-5.84-5.46-12.06-10.56-17.11-16.8-9.81-10.89-17.5-23.41-24.95-35.96-2.38-6.12-5.24-12.02-8.15-17.89-4.29-9.38-7.99-19.01-11.41-28.73-4.24-10.57-6.85-21.68-10.37-32.49-2.42-8.82-4.1-17.82-6.36-26.67-2.1-11.83-4.94-23.52-6.62-35.42-4.27-22.53-7.16-45.28-9.75-68.05-1.07-14.89-3.21-29.67-3.74-44.59-0.73-14.71-1.72-29.4-2.5-44.11 0.13-13.04-1.49-26.01-1.16-39.05-1.53-25.3-0.71-50.65-0.88-75.98 0.44-19.07 1.49-38.18 0.62-57.25l0.19-0.91c5.28-4.1 5.66-11.82 11.34-15.48 3.13 1.38 6.07 3.8 9.6 3.92 4.86-1.22 7.35-6.1 9.5-10.18 4.48-8.8199 6.25-18.65 7.73-28.34m-9.26 56.73c-6.08 2.05-10.64 6.99-14.69 11.76-4.24 5.5-9.4 11.36-9.19 18.76 0.19 10.4 6.49 19.37 12.93 27.04 4.78 5.32 10.49 11.19 18.06 11.74 5.96 0.2 9.64-5.47 11.31-10.49 4.01-12.41 3.48-25.87 0.92-38.52-1.5-6.37-3.35-13.16-8.12-17.92-2.79-2.92-7.54-4.29-11.22-2.37m26.49 74.67c-4.53 4-6.94 10.63-4.92 16.49 1.47 4.02 4.13 7.64 7.48 10.3 2.17 1.76 6 2.24 7.92-0.12 3.03-3.5 3.11-8.49 2.58-12.85-0.58-5.6-3.98-10.83-8.89-13.6-1.23-0.54-3.06-1.41-4.17-0.22m-33.35 27.94c-1.42 4.1-3.43 8.11-3.93 12.47-1.65 3.16-2.51 6.65-3.35 10.1l0.45 0.55c-1.85 3.32-2.44 7.11-3.28 10.77-2.54 11.82-4.58 23.89-4.03 36.03 0.39 6.36 1.49 13.23 5.93 18.14 2 2.41 5.03 3.54 8.06 3.96 10.47-0.41 21.03-1.2 31.15-4.08 7.5-2.22 15.37-5.3 20.17-11.81 3.75-4.89 4.15-11.46 2.99-17.31-1.97-10.16-6.39-19.65-11.35-28.67-1.04-1.99-2.31-3.86-3.89-5.44-1.38-4.38-4.72-7.79-7.23-11.55-4.53-6.05-9.58-11.78-15.5-16.5-3.18-2.36-6.98-4.87-11.13-4.01-3.01 1.2-3.85 4.67-5.06 7.35m66.82 79.83c-0.38 1.13-1.37 2.27-1.11 3.52-2.18 3.18-3.5 6.83-4.92 10.4-5.43 14.37-10.32 29.6-9.05 45.17 0.44 6.33 3.35 12.9 8.93 16.28 6.07 3.29 13.02 4.38 19.77 5.4-0.43 0.2-1.28 0.59-1.7 0.79 6.42 0.93 13.09 1.27 19.46-0.22l-0.87-0.58c6.57-1.1 13.22-2.65 18.96-6.19 5.29-3.08 9.7-8.37 9.47-14.81-0.58-2.75-1.1-5.54-2.38-8.06-8.54-16.95-17.09-34.12-29.1-48.93-3.5-4.41-7.78-8.19-12.67-10.98-2.41-0.6899-5.02-1.5699-7.5-0.6299-3.93 1.2899-5.51 5.4899-7.29 8.8399m-35.48 15.42c-10.35 3.66-18.93 10.84-27.54 17.44-2.68 2.31-6.01 4.22-7.6 7.51-1.56 3.98 0.91 8.04 3.5 10.94 6.27 6.7 14.43 11.14 22.17 15.9 1.9 1.21 4.21 2.33 6.47 1.34 3.57-1.6 5.82-5.12 7.64-8.44 4.46-8.68 6.82-18.33 7.97-27.98 0.2-4.75 0.78-10-1.67-14.29-2.24-3.78-7.26-3.78-10.94-2.42m116.48 68.25c-3.83 0.37-7.52 1.56-11.03 3.1-3.47 1.68-7.05 3.96-8.29 7.84-2.02 6.35 0.59 12.96 3.17 18.74 6.48 13.14 16.03 24.41 25.5 35.46 2.83 3.85 8.14 2.9 12.07 1.62 10.15-3.55 18.83-10.21 26.79-17.28 2.96-2.76 6.2-5.42 8.01-9.13 1.38-0.46 2.18-1.83 3.09-2.87 3.66-5.06 7.24-10.69 7.31-17.15-0.42-2.65-1.05-5.41-3.11-7.27-6.77-6.77-16.34-9.49-25.37-11.72-12.5-2.4601-25.54-3.7701-38.14-1.3401m-113.28 9.84c-8.33 2.03-16.65 4.74-23.82 9.56-3.39 2.26-5.98 5.57-7.31 9.43-3.15 8.98-2.26 18.77-0.94 28.02 1.91 10.41 4.33 20.87 8.33 30.7 2.81 8.63 6.24 17.14 10.63 25.1 2.48 6.73 9.85 11.66 17.05 9.3 13.55-3.98 23.71-14.68 33.01-24.77 7.01-7.8701 13.39-16.29 19.13-25.12 7.89-12.07 15.13-24.8 19.4-38.64 1.77-6.07 2.98-13.99-2.47-18.59-9.56-8.11-22.85-8.53-34.76-9.27-12.85 0.0201-25.75 1.2201-38.25 4.2801m220.74 18.93c-10.98 2.24-22.2 8.89-26.3 19.8-1.61 3.79 1.14 7.7 4.65 9.1 10.45 4.54 22.15 4.48 33.34 4.26 5.11 0.03 9.37-3.97 10.85-8.66 2.29-7.52-0.09-16.46-6.37-21.37-4.54-3.51-10.68-4.03-16.17-3.13m-152.69 33.3c-4.5 6.92-4.84 15.47-5.51 23.45-0.23 5.33-0.91 10.85 0.76 16.03 1.24 6.7599 7.76 11.16 14.3 11.79-0.87 0.09-2.61 0.26-3.48 0.35 3.67 1.57 7.74 0.94 11.54 0.29-0.42-0.19-1.26-0.57-1.69-0.76 9.8-1.76 19.54-6.7 25.17-15.14 2.29-3.6 3.94-8.81 1.41-12.63-0.39-4.95-3.35-9.13-6.29-12.93-6.1201-7.32-14.33-13.42-23.9-15.03-4.52-0.9-9.74 0.54-12.31 4.58m204.77 0.53c-6.64 0.33-13.03 2.56-19.14 5.01-5 2.19-10.56 5.36-11.92 11.09-1.71 7.59 1.03 15.27 4.21 22.08 5.48 11.35 12.81 21.76 20.93 31.37 6.96 8.69 16 16.93 27.5 18.35 10.91 1.4901 21.51-3.58 29.66-10.48 9.34-8.04 16.78-18.3 21.79-29.54 2.56-4.79 4.14-10.03 5.5-15.26 1.59-6.72 2.37-14.32-1.36-20.51-3.11-5.05-8.56-7.92-13.94-9.95-12.32-4.57-25.63-5.16-38.63-4.89-8.21 0.28-16.75 0.08-24.6 2.73m-112.07 16.75l0.13 0.59c-10.56 3.33-20.36 8.75-30.01 14.11-3.52 1.78-6.97 3.96-9.13 7.37l0.15 0.73c-3.08 4.07-2.47 9.51-2.34 14.31 1.43 14.15 6.65 27.58 12.29 40.54 3.33 7.87 12.48 10.15 19.95 12.21 24.15 5.32 49.06 4.8 73.64 4.85 3.18 0.4 5.72-2 6.98-4.68 1.95-4.03 3.16-8.46 3.44-12.93 0.47-1.92 0.99-3.9 0.73-5.88 0.97-9.05 0.35-18.16 0.25-27.22 0.02-1.71-0.15-3.4-0.69-5-1.15-12.84-3.25-25.73-7.8199-37.83-1.53-3.82-3.29-7.92-6.83-10.27-5.05-3.23-11.3-3.52-17.1-3.08-15.16 1.42-29.53 6.78-43.64 12.18m216.91 5.29c-6.92 7.96-9.85 18.36-14.37 27.7-0.71 1.84-2.24 3.7-1.66 5.78 2.15 3.73 6.54 5.26 10.36 6.69 4.38 1.72 10.2 1.38 13.26-2.6 3.37-4.5 3.75-10.4 3.79-15.82-0.05-8.24-0.8-16.57-3.1-24.51-3.12-0.91-6.3 0.25-8.28 2.76m39.81 18.79c-4.9 4.96-6.25 12.21-7.48 18.81-0.71 4.74-1.09 9.53-1.39 14.31-0.07-1.45-0.23-2.89-0.46-4.31-1.5 3.47-0.12 7.6299-2.47 10.84-2.94-4.45-8.34-5.98-13.3-6.84-12.98-2.19-26.27-1.14-39.2 0.85-3.53 0.86-8.21 1.27-9.84 5.08-1.18 4.41-0.41 9.11 0.65 13.48 1.99 6.65 3.98 14.01 9.66 18.54 5.58 4.37 13.29 4.12 19.69 1.9l0.77 0.51 1.01-0.42 0.17-0.9c5.13-1.73 9.66-4.88 14-8.06 6.99-5.59 14-12.31 16.48-21.19 0.5 2.32 1.54 4.47 2.48 6.65 0.1-0.89 0.28-2.69 0.38-3.58 0.74 9.41 0.81 19.36 5.04 28.01 3.04 5.28 10.08 4.35 14.95 2.61 8.28-3.14 16.41-7.36 23-13.33 3.83-1.46 6.38-4.9 9.11-7.79 5.65-6.84 6.96-16.72 3.31-24.8-5.78-13.35-17.78-23.13-30.62-29.35-4.87-1.96-11.31-5.04-15.94-1.02m-391.48 18.55c-3.09 5.08-5.62 10.6-6.91 16.43-1.75 3.21-2.39 6.95-3.14 10.51-0.62 2.42 0.97 5.21 3.57 5.48 7.13 1.11 14.19-1.43 20.58-4.37 4.18-2.18 9.1-4.81 10.32-9.77 1.5-6.51-1.39-13.26-5.57-18.18-2.27-3.16-5.55-5.91-9.47-6.58-4.24-0.34-7.29 3.27-9.38 6.48m220.91 26c-2.92 5.31-2.85 11.6-2.88 17.5 0.25 4.83 0.01 9.72 1 14.48 0.17 1.69 2.02 2.08 3.35 2.55 5.82 1.7 12.11 0.6 17.65-1.57 3.81-1.78 8.33-4.16 9.12-8.72 0.67-4.71-1.27-9.55-4.43-13 0.03-1.07-0.86-1.85-1.42-2.64-4.25-4.99-9.49-9.6-15.96-11.29-2.48-0.87-5.28 0.37-6.43 2.69m73.77 20.64c-1.66 1.6801-3.93 3.14-4.58 5.53-2.77 2.23-4.88 5.13-6.94 8-2.4 3.2-4.39 7.35-3.01 11.4 1.91 6.52 8.09 10.23 13.41 13.75 5.14 3.05 10.98 6.46 17.21 5.36 4.48-0.74 6.8799-5.33 7.56-9.42 0.79-4.95 0.91-10.14-0.2-15.04-0.62-6.69-2.57-13.2-5.12-19.39-1.29-2.8-2.97-6.5099-6.61-6.42-4.65 0.03-8.35 3.41-11.72 6.23z" fill="#FEE101" stroke="#FEE101" stroke-width=".0938"/>
	<path d="m426.24 401.78c-1.5-6.37-3.35-13.16-8.12-17.92-2.7899-2.92-7.5399-4.29-11.22-2.37-6.08 2.05-10.64 6.99-14.69 11.76-4.24 5.5-9.3999 11.36-9.1899 18.76 0.1899 10.4 6.49 19.37 12.93 27.04 4.78 5.32 10.49 11.19 18.06 11.74 5.96 0.2 9.64-5.47 11.31-10.49 4.01-12.41 3.4799-25.87 0.9199-38.52z" fill="#B31206" stroke="#B31206" stroke-width=".0938"/>
		<path d="m361.8 397.45c0.64-0.53 1.26-1.09 1.86-1.66-1.4 14.02-0.55 28.14-0.73 42.21-0.27 10.96 0.47 21.9 0.22 32.85 1.61 16.34 1.42 32.79 1.66 49.2 0.14 7.9 2.93 15.85 0.65 23.68-1.38-13.19-1.31-26.47-2.27-39.7-0.2-4.97-0.24-9.94-0.3-14.9 0.13-5.16-0.25-10.3-0.74-15.42-0.48-25.41 0.19-50.85-0.35-76.26z" enable-background="new    " fill="#E2AD1B" opacity=".93" stroke="#E2AD1B" stroke-width=".0938"/>
		<path d="m433.39 456.16c1.11-1.19 2.94-0.32 4.17 0.22 4.91 2.77 8.31 8 8.89 13.6 0.53 4.36 0.45 9.35-2.58 12.85-1.92 2.36-5.75 1.88-7.92 0.12-3.35-2.66-6.01-6.28-7.48-10.3-2.02-5.86 0.39-12.49 4.92-16.49z" fill="#BB1305" stroke="#BB1305" stroke-width=".0938"/>
		<path d="m362.15 473.71c0.49 5.12 0.87 10.26 0.74 15.42-0.75-5.1-1.02-10.27-0.74-15.42z" enable-background="new    " fill="#825500" opacity=".52" stroke="#825500" stroke-width=".0938"/>
	<path d="m454.2 542.92c-1.97-10.16-6.3899-19.65-11.35-28.67-1.04-1.99-2.3101-3.86-3.8901-5.44-1.3799-4.38-4.72-7.79-7.23-11.55-4.53-6.05-9.58-11.78-15.5-16.5-3.1799-2.36-6.98-4.87-11.13-4.01-3.01 1.2-3.8501 4.67-5.0601 7.35-1.42 4.1-3.4301 8.11-3.9301 12.47-1.65 3.16-2.5099 6.65-3.35 10.1l0.45 0.55c-1.85 3.32-2.4399 7.11-3.28 10.77-2.5399 11.82-4.5798 23.89-4.0299 36.03 0.39 6.36 1.49 13.23 5.9301 18.14 2 2.41 5.0299 3.54 8.0599 3.96 10.47-0.41 21.03-1.2 31.15-4.08 7.5-2.22 15.37-5.3 20.17-11.81 3.7501-4.89 4.1501-11.46 2.9901-17.31z" fill="#BB2103" stroke="#BB2103" stroke-width=".0938"/>
	<path d="m523.42 615.63c-8.5399-16.95-17.09-34.12-29.1-48.93-3.5-4.41-7.78-8.19-12.67-10.98-2.41-0.6899-5.02-1.5699-7.5-0.6299-3.9301 1.29-5.51 5.49-7.29 8.84-0.38 1.13-1.37 2.27-1.11 3.52-2.1799 3.18-3.5 6.83-4.9199 10.4-5.4301 14.37-10.32 29.6-9.05 45.17 0.4399 6.33 3.35 12.9 8.9299 16.28 6.0701 3.29 13.02 4.38 19.77 5.4 5.6201 0.34 11.26 0.26 16.89-0.01 6.5699-1.1 13.22-2.65 18.96-6.19 5.2899-3.08 9.7-8.37 9.47-14.81-0.5801-2.7501-1.1001-5.5401-2.3802-8.0601z" fill="#AC1E09" stroke="#AC1E09" stroke-width=".0938"/>
		<path d="m431.38 579.35c3.68-1.36 8.7-1.36 10.94 2.42 2.45 4.29 1.87 9.54 1.67 14.29-1.15 9.65-3.51 19.3-7.97 27.98-1.82 3.32-4.07 6.84-7.64 8.44-2.26 0.99-4.57-0.13-6.47-1.34-7.74-4.76-15.9-9.2-22.17-15.9-2.59-2.9-5.06-6.96-3.5-10.94 1.59-3.29 4.92-5.2 7.6-7.51 8.61-6.6 17.19-13.78 27.54-17.44z" fill="#A80F09" stroke="#A80F09" stroke-width=".0938"/>
		<path d="m478.78 645.49c0.42-0.2 1.27-0.59 1.7-0.79 5.62 0.34 11.26 0.26 16.89-0.01l0.87 0.58c-6.37 1.49-13.04 1.15-19.46 0.22z" fill="#FFBF4A" stroke="#FFBF4A" stroke-width=".0938"/>
	<path d="m611.37 660.66c-6.77-6.77-16.34-9.49-25.37-11.72-12.5-2.46-25.54-3.77-38.14-1.34-3.83 0.37-7.5199 1.56-11.03 3.1-3.4701 1.68-7.05 3.96-8.29 7.84-2.02 6.35 0.59 12.96 3.1699 18.74 6.48 13.14 16.03 24.41 25.5 35.46 2.8301 3.85 8.14 2.9 12.07 1.62 10.15-3.55 18.83-10.21 26.79-17.28 2.96-2.76 6.2-5.42 8.01-9.13 1.3799-0.46 2.1799-1.83 3.0898-2.87 3.6602-5.06 7.24-10.69 7.3101-17.15-0.4199-2.6501-1.0501-5.4101-3.11-7.2701z" fill="#A81509" stroke="#A81509" stroke-width=".0938"/>
		<path d="m655.32 676.37c5.49-0.9 11.63-0.38 16.17 3.13 6.28 4.91 8.66 13.85 6.37 21.37-1.48 4.69-5.74 8.69-10.85 8.66-11.19 0.22-22.89 0.28-33.34-4.26-3.51-1.4-6.26-5.31-4.65-9.1 4.1-10.91 15.32-17.56 26.3-19.8z" fill="#B71A06" stroke="#B71A06" stroke-width=".0938"/>
		<path d="m378.14 693.74c1.76 13.05 3.85 26.05 4.98 39.18 4.42 37.65 9.93 75.15 15.36 112.67 1.34 8.28 3.06 16.51 4.13 24.84 1.16 9.26 3.37 18.34 4.38 27.63 4.78 27.55 9.2 55.17 14.34 82.67 0.85 5.18 2.22 10.33 2.34 15.61-0.95 4.19-2.07 8.3799-1.64 12.73-0.54 9-1.99 17.95-2.09 26.98-0.19 6.25-0.26 12.65-2.18 18.66-0.8 0.6001-1.62 1.17-2.46 1.73l-0.71-0.33c-2.95-1.78-6.4-0.38-9.58-0.51-9.51-0.46-19.12 1.26-28.51-0.95-0.66-7.23-1.15-14.51-0.74-21.76 0.68-9.77-0.71-19.52-0.08-29.29 0.62-8.39-0.92-16.77-0.11-25.14 0.34-4.16 0.98-8.29 0.95-12.45-0.38-12.34 0.63-24.67 0.59-37.01-0.3-23.33 0.23-46.66 0.68-69.99 0.42-8.67-0.17-17.33-0.71-25.98-0.49-6.7 0.74-13.37 0.38-20.06-0.13-3.29-0.24-6.59 0.05-9.87 1.6-13.65 0.53-27.43 0.82-41.14-0.34-13.68 0.58-27.39-0.4-41.05 0.08-9.0498 0.05-18.11 0.21-27.17z" fill="#FFA000" stroke="#FFA000" stroke-width=".0938"/>
		<path d="m502.63 709.67c2.57-4.04 7.79-5.48 12.31-4.58 9.57 1.61 17.78 7.71 23.9 15.03 2.94 3.8 5.9 7.98 6.29 12.93-2.16-2.43-3.65-5.31-5.13-8.17-1.8-3.43-5.2-5.51-8.36-7.51-3.97 1.75-8.85 0.71-12.2 3.84-7.09 3.98-14.07 8.15-21.16 12.12-0.42 5.26-0.38 10.54-0.4 15.82-1.67-5.1801-0.99-10.7-0.76-16.03 0.67-7.98 1.01-16.53 5.51-23.45z" fill="#A21409" stroke="#A21409" stroke-width=".0938"/>
		<path d="m519.44 721.21c3.35-3.13 8.23-2.09 12.2-3.84 3.16 2 6.56 4.08 8.36 7.51 1.48 2.86 2.97 5.74 5.13 8.17 2.53 3.82 0.88 9.03-1.41 12.63-5.6299 8.44-15.37 13.38-25.17 15.14-2.12 0.04-4.25 0.09-6.37 0.12-6.54-0.63-13.06-5.03-14.3-11.79 0.02-5.28-0.02-10.56 0.4-15.82 7.09-3.97 14.07-8.14 21.16-12.12z" fill="#9B0309" stroke="#9B0309" stroke-width=".0938"/>
		<path d="m376.86 794.52c0.5-24.53-0.28-49.1 1.07-73.61 0.98 13.66 0.06 27.37 0.4 41.05-0.29 13.71 0.78 27.49-0.82 41.14-0.29 3.28-0.18 6.58-0.05 9.87 0.36 6.69-0.87 13.36-0.38 20.06 0.54 8.65 1.13 17.31 0.71 25.98-0.45 23.33-0.98 46.66-0.68 69.99 0.04 12.34-0.97 24.67-0.59 37.01 0.03 4.16-0.61 8.29-0.95 12.45-0.81 8.37 0.73 16.75 0.11 25.14-0.63 9.77 0.76 19.52 0.08 29.29-0.41 7.25 0.08 14.53 0.74 21.76 9.39 2.21 19 0.49 28.51 0.95 3.18 0.13 6.63-1.27 9.58 0.51-6.57 2.47-13.72 1.77-20.59 1.92-6.56-0.14-13.26 0.61-19.65-1.2101-1.33-5.85-0.79-11.88-0.83-17.81 0.77-21 0.33-42.02 0.62-63.02 1.27-34.65 0.45-69.33 1.82-103.98 0.13-25.83-0.2-51.67 0.9-77.49z" fill="#F0A015" stroke="#F0A015" stroke-width=".0938"/>
		<path d="m812.24 732.24c1.98-2.51 5.16-3.67 8.28-2.76 2.3 7.94 3.05 16.27 3.1 24.51-0.04 5.42-0.42 11.32-3.79 15.82-3.06 3.98-8.88 4.32-13.26 2.6-3.82-1.43-8.21-2.96-10.36-6.69-0.58-2.08 0.95-3.9399 1.66-5.78 4.52-9.34 7.45-19.74 14.37-27.7z" fill="#A90807" stroke="#A90807" stroke-width=".0938"/>
	<path d="m507.59 662.43c-9.5601-8.11-22.85-8.53-34.76-9.27-12.85 0.02-25.75 1.22-38.25 4.28-8.3301 2.03-16.65 4.74-23.82 9.56-3.39 2.26-5.98 5.57-7.3101 9.43-3.1499 8.98-2.26 18.77-0.9399 28.02 1.91 10.41 4.3301 20.87 8.3301 30.7 2.8099 8.63 6.24 17.14 10.63 25.1 2.48 6.73 9.8501 11.66 17.05 9.3 13.55-3.98 23.71-14.68 33.01-24.77 7.01-7.8701 13.39-16.29 19.13-25.12 7.89-12.07 15.13-24.8 19.4-38.64 1.7701-6.0699 2.98-13.99-2.4699-18.59z" fill="#A00809" stroke="#A00809" stroke-width=".0938"/>
	<path d="m671.41 770.95c0.02-1.71-0.1499-3.4-0.6899-5-1.1499-12.84-3.25-25.73-7.8199-37.83-1.53-3.82-3.29-7.92-6.83-10.27-5.05-3.23-11.3-3.52-17.1-3.08-15.16 1.42-29.53 6.78-43.64 12.18l0.1299 0.59c-10.56 3.33-20.36 8.75-30.01 14.11-3.52 1.78-6.97 3.96-9.1299 7.37l0.1499 0.73c-3.08 4.07-2.47 9.51-2.34 14.31 1.4301 14.15 6.65 27.58 12.29 40.54 3.3301 7.87 12.48 10.15 19.95 12.21 24.15 5.32 49.06 4.8 73.64 4.85 3.1799 0.4 5.72-2 6.98-4.68 1.95-4.03 3.16-8.46 3.4399-12.93 0.4701-1.92 0.99-3.9 0.73-5.88 0.9701-9.05 0.3501-18.16 0.25-27.22z" fill="#940109" stroke="#940109" stroke-width=".0938"/>
	<path d="m784.57 722.31c-3.1101-5.05-8.5601-7.92-13.94-9.95-12.32-4.57-25.63-5.16-38.63-4.89-8.21 0.28-16.75 0.08-24.6 2.73-6.64 0.33-13.03 2.56-19.14 5.01-5 2.19-10.56 5.36-11.92 11.09-1.7101 7.59 1.0299 15.27 4.21 22.08 5.48 11.35 12.81 21.76 20.93 31.37 6.96 8.69 16 16.93 27.5 18.35 10.91 1.4901 21.51-3.58 29.66-10.48 9.34-8.04 16.78-18.3 21.79-29.54 2.5601-4.79 4.1401-10.03 5.5-15.26 1.5901-6.72 2.3701-14.32-1.3598-20.51z" fill="#A10F09" stroke="#A10F09" stroke-width=".0938"/>
		<path d="m508.7 761.29c0.87-0.09 2.61-0.2599 3.48-0.35 2.12-0.03 4.25-0.08 6.37-0.12 0.43 0.19 1.27 0.57 1.69 0.76-3.8 0.65-7.87 1.28-11.54-0.29z" fill="#FFC856" stroke="#FFC856" stroke-width=".0938"/>
		<path d="m460.57 769.58c2.09-3.21 5.14-6.82 9.38-6.48 3.92 0.67 7.2 3.42 9.47 6.58 0.33 3.34 1.26 7.55-1.64 10.07-1.91 0.97-4.15 0.86-6.22 1.21-6.25 0.54-11.99 3.19-17.9 5.05 1.29-5.83 3.82-11.35 6.91-16.43z" fill="#880109" stroke="#880109" stroke-width=".0938"/>
		<path d="m479.42 769.68c4.18 4.92 7.07 11.67 5.57 18.18-1.22 4.96-6.14 7.59-10.32 9.77-6.39 2.94-13.45 5.48-20.58 4.37-2.6-0.27-4.19-3.06-3.57-5.48 0.75-3.56 1.39-7.3 3.14-10.51 5.91-1.86 11.65-4.51 17.9-5.05 2.07-0.35 4.31-0.2401 6.22-1.21 2.9-2.52 1.97-6.73 1.64-10.07z" fill="#7A0109" stroke="#7A0109" stroke-width=".0938"/>
		<path d="m840.25 790.68c2.35-3.21 0.97-7.37 2.47-10.84 0.23 1.42 0.39 2.86 0.46 4.31-0.11 3.19-0.23 6.39-0.07 9.59 0.03 0.74 0.07 2.22 0.09 2.96-0.1 0.89-0.28 2.69-0.38 3.58-0.94-2.1801-1.98-4.33-2.48-6.65-0.05-0.99-0.08-1.97-0.09-2.95z" fill="#FECA3D" stroke="#FECA3D" stroke-width=".0938"/>
		<path d="m787.75 784.69c12.93-1.99 26.22-3.04 39.2-0.85 4.96 0.86 10.36 2.39 13.3 6.84 0.01 0.98 0.04 1.96 0.09 2.95-2.48 8.88-9.4901 15.6-16.48 21.19-4.34 3.18-8.87 6.33-14 8.06-0.49 0.21-1.46 0.61-1.95 0.81-6.4 2.22-14.11 2.47-19.69-1.9-5.68-4.53-7.67-11.89-9.66-18.54-1.06-4.37-1.83-9.07-0.65-13.48 1.63-3.81 6.31-4.22 9.84-5.08z" fill="#960109" stroke="#960109" stroke-width=".0938"/>
		<path d="m681.48 795.58c1.15-2.32 3.95-3.56 6.43-2.69 6.47 1.69 11.71 6.3 15.96 11.29 0.56 0.79 1.45 1.57 1.42 2.64-0.53 4.04 2.62 7.28 2.38 11.25-2.11-1.18-4.24-2.29-6.31-3.5-5.09 3.44-11.5 2.73-17.29 2.26-2.38-0.17-3.8-2.35-5.47-3.75 0.03-5.9-0.04-12.19 2.88-17.5z" fill="#930109" stroke="#930109" stroke-width=".0938"/>
	<path d="m898.61 781.4c-5.7799-13.35-17.78-23.13-30.62-29.35-4.87-1.96-11.31-5.04-15.94-1.02-4.9 4.96-6.25 12.21-7.48 18.81-0.7101 4.74-1.0901 9.53-1.3901 14.31-0.1099 3.19-0.23 6.39-0.0699 9.59 0.03 0.74 0.0699 2.22 0.09 2.96 0.74 9.41 0.8101 19.36 5.04 28.01 3.04 5.28 10.08 4.35 14.95 2.61 8.28-3.14 16.41-7.36 23-13.33 3.8301-1.46 6.3801-4.9 9.1101-7.79 5.6498-6.84 6.9598-16.72 3.3098-24.8z" fill="#8F0109" stroke="#8F0109" stroke-width=".0938"/>
		<path d="m707.67 818.07c0.24-3.97-2.91-7.21-2.38-11.25 3.16 3.45 5.1 8.29 4.43 13-0.79 4.56-5.31 6.94-9.12 8.72-5.54 2.17-11.83 3.27-17.65 1.57-1.33-0.47-3.18-0.86-3.35-2.55-0.99-4.76-0.75-9.65-1-14.48 1.67 1.4 3.09 3.58 5.47 3.75 5.79 0.47 12.2 1.18 17.29-2.26 2.07 1.21 4.2 2.32 6.31 3.5z" fill="#85010A" stroke="#85010A" stroke-width=".0938"/>
		<path d="m755.25 816.22c3.37-2.8199 7.07-6.2 11.72-6.23 3.64-0.09 5.32 3.62 6.61 6.42 2.55 6.19 4.5 12.7 5.12 19.39-1.6-1.31-3.33-2.44-4.96-3.7-1.61 2.13-3.29 4.22-4.94 6.33-0.94-2.05-1.89-4.09-2.73-6.16-1.29 0.84-2.51 1.84-3.97 2.36-2.46-0.86-4.29-2.88-6.29-4.45-1.89 0.93-3.76 1.97-5.78 2.57-1.3701-0.09-2.35-1.26-3.55-1.76 1.67-2.95 3.52-5.87 4.19-9.24 0.65-2.39 2.92-3.85 4.58-5.53z" fill="#890109" stroke="#890109" stroke-width=".0938"/>
		<path d="m743.73 829.75c2.06-2.87 4.17-5.77 6.94-8-0.67 3.37-2.52 6.29-4.19 9.24 1.2 0.5 2.18 1.67 3.55 1.76 2.02-0.6 3.89-1.64 5.78-2.57 2 1.57 3.83 3.59 6.29 4.45 1.46-0.52 2.6801-1.52 3.97-2.36 0.84 2.07 1.79 4.11 2.73 6.16 1.65-2.11 3.33-4.2 4.94-6.33 1.63 1.26 3.36 2.39 4.96 3.7 1.11 4.9 0.99 10.09 0.2 15.04-0.6801 4.09-3.08 8.68-7.56 9.42-6.23 1.1-12.07-2.31-17.21-5.36-5.32-3.52-11.5-7.23-13.41-13.75-1.38-4.05 0.61-8.2 3.01-11.4z" fill="#7B0108" stroke="#7B0108" stroke-width=".0938"/>
		<path d="m807.91 823.69c0.4901-0.2 1.46-0.6 1.95-0.81l-0.17 0.9-1.01 0.42-0.77-0.51z" fill="#F08F6C" stroke="#F08F6C" stroke-width=".0938"/>
	<path d="m970.19 1059c-0.08-11.34-0.26-22.67-0.3199-34-1.27-28.59-2.98-57.17-6.22-85.62-4.9901-42.15-12.14-84.37-26.4-124.48-6.6799-18.5-15.06-36.52-26.58-52.53-2.8199-3.4-2.8398-8.36-0.0199-11.76 6.2999-8.4 12.7-16.76 18.31-25.65 3.16-5.46 7.1301-10.6 9.47-16.45 2.76-3.25 4.24-7.31 6.23-11.03 9.9501-19.68 17.34-40.65 22.22-62.14 0.85-2.84 0.39-5.78-1-8.35-1.2001 0.13-2.39 0.24-3.58 0.32-3.6901 4.47-5.3301 10.13-7.91 15.23-6.41 13.39-14.11 26.14-22.65 38.27-3.85 5.86-8.84 10.94-12.26 17.05-3.83 3.05-6.36 7.43-9.74 10.95-7.3301 7.94-14.25 16.39-22.68 23.21-3.02 2.87-7.67 1.75-10.84-0.23-27.56-15.97-57.69-26.77-87.98-36.27-30.53-9.39-61.44-17.48-92.33-25.56-32.63-8.72-65.46-17.05-97.16-28.81-16.89-6.46-33.84-13.6-48.37-24.55-7.65-5.63-13.52-13.19-19.14-20.74-7.48-10.29-14.72-20.76-21.4-31.59-46.36-73.91-72.86-159.02-83.95-245.21-2.15-16.31-3.36-32.72-4.78-49.09-0.15 1.75-0.38 3.49-0.61 5.24-1.23-7.1-0.87-14.34-0.54-21.49 0.3 0.62 0.91 1.8601 1.2101 2.48 3.46-20.23 5.5599-40.76 4.7799-61.31-0.8099-13.97-2.2999-28.2-7.77-41.21-0.6099-1.2899-1.2899-2.5399-1.95-3.7899 2.02-4.33 6.15-7.08 9.71-10.05 1.8801-1.1 3.9001-1.9401 5.92-2.7699-6.6899-3.6201-10.94-10.2-13.84-17.01-0.23 4.99-4.8101 7.84-8.4299 10.51-3.77 2.98-9.2301 2.4099-13.01-0.2301-6.5-4.15-13.39-7.65-20.59-10.42-2.11-1-5.04-1.74-5.59-4.3899-1.6901-6.8501 1.4401-13.7 3.4401-20.15-6.49-1.33-12.97-2.65-19.17-5.04 0.46 7.3101-1.12 14.66-3.9801 21.34-2.82 4.1798-8.48 2.9298-12.69 2.8298-5.86 3.4399-12.74 4.09-19.03 6.4199-6.9399 2.23-13.48 6.29-21.01 6-0.88 3.67-4.79 4.6401-7.69 6.26-40.42 20.71-77.21 47.9-111.23 77.85-1.75 1.59-3.5699 3.1299-5.06 4.97-1.36 2-2.5699 4.1-3.79 6.1899 5.15-1.7 9.98-4.3 15.26-5.6 8.78-1.91 17.92-2.67 26.8-0.9401 7.43 0.6301 14.69 2.4601 21.7 4.9601 15.2 5.35 29.66 12.64 43.32 21.16 12.1 7.36 23.41 15.91 35.17 23.78 14.77 10.07 29.63 20.12 43.18 31.82 6.83 6.13 13.59 12.5 18.63 20.24 6.22 8.1 9.95 18.16 10.18 28.4 0.5801 9.7-2.48 19.04-6.23 27.83l-0.21 0.99c5.28-4.1 5.66-11.82 11.34-15.48 0.08-2.48 0.83-4.86 2-7.02 5.33-10.63 9.22-21.89 13.63-32.9 0.8201-3.6 2.01-7.09 3.3201-10.52 2.03 0.7001 4.5601 1.0601 5.63 3.2101 2.23 3.7999 1.91 8.39 2.25 12.63 1.34 3.97 2.39 8.05 2.7999 12.23 2.15 16.95 6.3201 33.52 9.73 50.23 4.8301 19.69 10.07 39.31 16.57 58.52 3.89 9.33 6.38 19.18 10.5 28.43 4.55 10.49 8.15 21.39 13.5 31.52 3.9199 7.53 6.8101 15.57 11.15 22.9 9.1801 17.16 18.64 34.24 29.61 50.34 3.1 5.13 6.4099 10.13 10.24 14.74 5.75 6.95 9.96 15.29 17.3 20.8 13.69 12.08 30.12 20.54 47.1 27 9.4202 4.39 19.39 7.35 29.2 10.71 36.39 11.7 73.58 20.64 110.46 30.62 15.78 4.69 31.86 8.35 47.56 13.33 30 8.82 60.13 18.27 87.68 33.32 8.1699 4.75 16.87 8.73 24.21 14.78 10.2 7.9 18.2 18.34 24.43 29.57 9.5601 16.42 15.49 34.63 20.04 52.99 4.6799 18.43 6.8401 37.35 8.6699 56.23 1.53 12.27 1.1901 24.65 1.3801 36.98-0.0901 14.59 0.09 29.23-1.66 43.75-1.15 8.2-1.7001 16.66-4.9701 24.37-5.45-0.58-9.95-4.86-15.64-4.06-16.69 1.16-34.94 0.89-49.36-8.72-6.4199-4.19-11.9-10.03-14.71-17.24-1.8999-4.49-3.6099-9.34-7.45-12.59-6.97-6.16-15.07-11.08-23.87-14.14-29.52-10.49-60.88-13.97-91.89-16.94-17.57-1.2-35.13-2.7-52.75-2.55-33.69-1.78-67.53-0.9-101.06 2.94-15 1.23-29.88 4.17-44.97 4.11-11.58-0.65-22.61-4.95-32.96-9.93-6.01-2.74-11.1-7.02-16.82-10.26-5.8398-5.46-12.06-10.56-17.11-16.8-9.8101-10.89-17.5-23.41-24.95-35.96-2.38-6.12-5.24-12.02-8.15-17.89-4.29-9.38-7.99-19.01-11.41-28.73-4.24-10.57-6.8501-21.68-10.37-32.49-2.4199-8.82-4.0999-17.82-6.3599-26.67-2.1001-11.83-4.9401-23.52-6.6201-35.42-4.27-22.53-7.1599-45.28-9.75-68.05-1.0699-14.89-3.21-29.67-3.74-44.59-0.73-14.71-1.72-29.4-2.5-44.11 0.1301-13.04-1.49-26.01-1.1599-39.05-1.53-25.3-0.71-50.65-0.8801-75.98 0.4401-19.07 1.4901-38.18 0.6201-57.25-4.26 6.98-8.3601 14.16-14.14 20.04-1.4 14.02-0.55 28.14-0.7301 42.21-0.2699 10.96 0.4701 21.9 0.2201 32.85 1.61 16.34 1.42 32.79 1.66 49.2 0.1399 7.9 2.9299 15.85 0.6499 23.68 2.3601 50.12 7.72 100.09 12.68 150.01 1.76 13.05 3.85 26.05 4.98 39.18 4.42 37.65 9.9301 75.15 15.36 112.67 1.3401 8.28 3.0601 16.51 4.13 24.84 1.16 9.26 3.37 18.34 4.38 27.63 4.78 27.55 9.2 55.17 14.34 82.67 0.8499 5.18 2.22 10.33 2.34 15.61 0.42 0.46 1.24 1.37 1.66 1.83 1.0599 0.9 0.9399 2.41 0.77 3.67-0.7201 5.99 1.3499 11.75 2.2899 17.58 2.5499 13.51 4.89 27.05 7.7899 40.49 0.78 4.51 3.9501 8.99 8.8601 9.36 12.7 1.9 25.68 0.16 38.04-3 3.3199-1.09 7.1199-2.02 9.5299-4.6801 1.5601-6.09 1.12-12.44 1.4601-18.65 1.24-18.26 3.0699-36.52 6.51-54.51 2.6899-13.27 5.98-26.6 12.16-38.73 3.45-6.4 7.8301-13 14.76-15.99 4.8201-2.25 10.25-1.5 15.38-1.97-0.85-1.81-3.02-1.27-4.6-1.28 3.59-0.47 7.12 0.56 10.71 0.49 6.3201-0.03 12.65 0 18.96-0.49 11.3-0.94 22.67-0.09 33.97-0.97 9.6801-0.72 19.39-0.54 29.09-0.67 12.66 0.13 25.31-0.7 37.97-0.14 14.72 0.15 29.46-0.02 44.15 1.14 14.36-0.11 28.65 1.5 42.95 2.55 20.37 2.19 40.9 4.74 60.41 11.25 9.27 3.29 19.13 7.61 24.59 16.26 3.8199 6.86 5.4099 14.66 7.5399 22.16 6.5 25.23 10.1 51.11 12.9 76.99 0.55 5.12 0.51 10.39 2.23 15.32 2.3 1.8 5.51 1.17 8.26 1.42 8.11-0.29 16.42-0.25 24.31-2.29 2.27-7.66 2.6099-15.69 3.8899-23.53 2.0701-13.41 4.27-26.97 9.1901-39.68 1.7-3.66 3.17-8.06 7.1-9.9 3.4199-1.95 7.77 0.48 9.24 3.82 3.55 7.77 4.25 16.43 5.12 24.82 0.4801 11.33 1.51 22.67 0.79 34.02 0.08 2.75-0.75 6.8099 2.25 8.3099 4.9401 1.1 10.06 0.5801 15.1 0.7101 6.6-0.14 13.36 0.61 19.82-1.1901 1.1899-3.8399 1.4399-7.8799 1.3698-11.86zm-553.49-816.02c-0.3999 5.77-1.5599 11.43-2.6799 17.09-3.03 18.46-6.8301 37.09-14.99 54.06-1.52 2.95-3.28 5.91-5.8401 8.09-1.72 1.3501-4.0898 0.3501-5.6399-0.79-4.1901-3.08-7.54-7.1199-11.28-10.71-11.58-11.42-22.66-23.37-34.98-34-6.1899-6.5701-13.74-11.59-20.48-17.53-3.9401-3.48-8.53-6.1-12.63-9.3699-8-6.24-16.75-11.41-25.51-16.5-18.79-10.87-39.46-18.53-60.91-22.03-7.36-1.75-14.96-1-22.41-1.77-2.22-0.03-3.6201-1.64-4.48-3.5 1.53-2.16 3.26-4.1801 5.38-5.78 7.25-5.73 14.39-11.59 21.66-17.3 15.09-10.79 30.46-21.19 46.47-30.57 2.04-1.28 4.31-2.14 6.72-2.36 2.97-2.9299 6.74-5.17 10.82-6.14 10.04-6.76 21.59-10.74 32.81-15.06 9.53-3.1001 19.21-6.2001 29.27-6.9401 6.17-0.66 12.56-1.3099 18.58 0.66 10.78 3.4099 21.22 8 30.72 14.15 6.23 4.76 12.07 10.37 15.57 17.48 6.2101 11.9 6.75 25.7 7.03 38.84 0.4301 16.73-1.4 33.38-3.2 49.98z" fill="#FEBF02" stroke="#FEBF02" stroke-width=".0938"/>
		<path d="m425.33 998.17c1.06 0.9 0.94 2.41 0.77 3.67-1.67 0.16-1.74-2.82-0.77-3.67z" fill="#DDBB6B" stroke="#DDBB6B" stroke-width=".0938"/>
</svg>
